<!DOCTYPE svg PUBLIC "-//W3C//DTD SVG 1.1//EN" "http://www.w3.org/Graphics/SVG/1.1/DTD/svg11.dtd">

<!-- Uploaded to: SVG Repo, www.svgrepo.com, Transformed by: SVG Repo Mixer Tools -->
<svg fill="#4d88ff" height="800px" width="800px" version="1.1" id="Capa_1" xmlns="http://www.w3.org/2000/svg" xmlns:xlink="http://www.w3.org/1999/xlink" viewBox="-29.7 -29.7 356.40 356.40" xml:space="preserve" stroke="#4d88ff" strokeWidth="0.00297">

<g id="SVGRepo_bgCarrier" strokeWidth="0">
strokeLinejoin
<path transform="translate(-29.7, -29.7), scale(11.1375)" d="M16,27.827452859375626C18.51841094513187,28.05950390671567,21.065541362386774,28.46020487036662,23.428732303933135,27.55933309762379C26.104777503755084,26.539198185661895,28.67905145520444,24.92391196240739,30.115681074082477,22.44641554702029C31.610777077395408,19.868092686212123,32.63567141417741,16.503285242129397,31.41702288605702,13.783366750961264C30.198885611759742,11.064589334266266,26.476067993251885,10.772705907380852,24.087534358634564,8.992111586131653C22.343700265732725,7.692125252248923,21.218925010869206,5.781262187001616,19.302605103074814,4.752359945367585C17.026608825659924,3.5303418145440206,14.585909417993165,2.06747059156083,12.04352859331396,2.52549581921914C9.441773934306266,2.994217600958282,7.171933564153698,4.907785262581639,5.82224783696865,7.1809275485325035C4.5571003300833075,9.311690464625851,4.818016644013621,11.943537453948633,4.983465994558445,14.416061534960003C5.12155325432973,16.479678430046427,5.97415130086482,18.31076368277259,6.69667890836555,20.24868438223285C7.480917292032316,22.352122065778453,7.661415748135351,24.84903685986173,9.4018813160112,26.266873076783327C11.190334578406949,27.723801530008064,13.702956629448622,27.615799030221055,16,27.827452859375626" fill="#edf1f3" strokewidth="0"/>

</g>

<g id="SVGRepo_tracerCarrier" strokeLinecap="round" stroke-linejoin="round"/>

<g id="SVGRepo_iconCarrier"> <g> <path d="M148.5,142.498c-2.07,0-3.755,1.77-3.755,3.941c0,2.176,1.685,3.943,3.755,3.943s3.755-1.768,3.755-3.943 C152.255,144.268,150.571,142.498,148.5,142.498z"/> <path d="M148.499,95.823c-27.866,0-50.537,22.707-50.537,50.617c0,42.686,47.201,84.801,49.211,86.574 c0.469,0.414,0.98,0.5,1.326,0.5c0.346,0,0.857-0.086,1.328-0.502c2.008-1.771,49.211-43.889,49.211-86.572 C199.038,118.53,176.366,95.823,148.499,95.823z M148.5,164.43c-9.816,0-17.802-8.07-17.802-17.99 c0-9.918,7.985-17.988,17.802-17.988c9.816,0,17.802,8.07,17.802,17.988C166.302,156.36,158.317,164.43,148.5,164.43z"/> <path d="M293.099,122.735L154.633,15.803c-3.613-2.789-8.652-2.789-12.266,0L3.902,122.735c-3.398,2.625-4.75,7.119-3.363,11.182 c1.386,4.063,5.203,6.793,9.496,6.793h39.424v132.545c0,5.541,4.492,10.035,10.033,10.035h178.02 c5.541,0,10.033-4.494,10.033-10.035V140.709h39.422c4.293,0,8.11-2.73,9.496-6.793 C297.849,129.854,296.496,125.36,293.099,122.735z M159.117,243.549c-2.935,2.588-6.706,4.014-10.618,4.014 c-3.91,0-7.681-1.426-10.615-4.012c-2.206-1.945-53.969-48.156-53.969-97.111c0-35.656,28.972-64.664,64.584-64.664 c35.613,0,64.587,29.008,64.587,64.664C213.086,195.393,161.321,241.606,159.117,243.549z"/> </g> </g>

</svg>